<svg width="172" height="37" viewBox="0 0 172 37" fill="none" xmlns="http://www.w3.org/2000/svg">
<g clip-path="url(#clip0_337_2103)">
<path d="M107.282 35.8914C116.773 35.8914 124.466 28.0908 124.466 18.4682C124.466 8.84557 116.773 1.04492 107.282 1.04492C97.7921 1.04492 90.0986 8.84557 90.0986 18.4682C90.0986 28.0908 97.7921 35.8914 107.282 35.8914Z" fill="#EEEEEE"/>
<path fill-rule="evenodd" clip-rule="evenodd" d="M107.213 0.000132725C103.609 0.0139762 100.091 1.11145 97.1022 3.15367C94.1137 5.1959 91.7899 8.09108 90.4247 11.4729C89.0596 14.8546 88.7146 18.571 89.4333 22.1517C90.1519 25.7323 91.9021 29.0164 94.4621 31.5882C97.0222 34.1601 100.277 35.9041 103.815 36.5996C107.353 37.2952 111.015 36.9109 114.338 35.4956C117.66 34.0802 120.494 31.6973 122.48 28.6484C124.467 25.5996 125.517 22.0217 125.497 18.3677C125.471 13.475 123.53 8.79277 120.102 5.34906C116.674 1.90535 112.039 -0.0184038 107.213 0.000132725ZM112.461 33.4841C109.086 33.9359 105.668 33.9523 102.288 33.5329C101.697 31.2714 103.203 31.118 104.1 30.3479C104.07 24.2684 104.041 18.1842 104.014 12.0953C103.457 11.3008 101.608 12.8167 100.883 11.8479C99.807 9.62125 102.945 8.87553 104.515 7.60015C106.577 5.92055 107.309 2.69725 111.018 3.07011L111.141 29.7869C111.251 31.3585 113.035 31.2191 112.461 33.4841Z" fill="#C1272D"/>
<path d="M129.841 36.2712C128.545 36.2712 127.621 35.2467 127.61 33.8563C127.6 32.4659 128.545 31.4171 129.882 31.3996C131.219 31.3822 132.14 32.3893 132.15 33.818C132.161 35.2467 131.253 36.2572 129.879 36.2572L129.841 36.2712Z" fill="#DCE0DF"/>
<path d="M14.2179 36.6371L5.81845 25.542L2.5329 29.6295L2.52946 36.6267H0L0.0171838 11.0215H2.54665L2.53634 25.7476L14.2351 11.0319H17.4107L7.42342 23.5L17.3935 36.6371H14.2179Z" fill="black"/>
<path d="M34.5462 36.5299L34.5772 33.202C32.5701 35.8852 30.5115 36.9411 27.3325 36.9097C21.5896 36.8574 17.3658 32.5887 17.4105 26.9401C17.4552 21.2915 21.7305 17.0019 27.3462 17.0542C30.594 17.0855 32.8725 18.2843 34.6906 20.9361L34.725 17.5769L37.251 17.6013L37.0757 36.5543L34.5462 36.5299ZM27.3909 19.4133C26.4257 19.4022 25.4679 19.5845 24.5724 19.9495C23.6769 20.3146 22.8612 20.8553 22.1722 21.5407C21.4832 22.226 20.9343 23.0425 20.5572 23.9434C20.18 24.8442 19.982 25.8117 19.9743 26.7903C19.9365 31.1217 23.1499 34.5158 27.3875 34.5541C31.4222 34.5924 34.6047 31.2646 34.6356 26.9645C34.6622 25.9828 34.4946 25.0057 34.1425 24.0908C33.7904 23.176 33.261 22.3419 32.5856 21.638C31.9103 20.9341 31.1026 20.3745 30.2104 19.9924C29.3182 19.6103 28.3594 19.4134 27.3909 19.4133Z" fill="black"/>
<path d="M54.3356 19.9774L54.3149 36.6201H51.7855L51.8061 19.9879H45.8949L45.8742 36.6201H43.3448L43.3826 19.9635H40.4785V17.6427H43.3826C43.3207 13.2416 45.7505 10.994 50.5689 11.001V13.3218C47.1321 13.3218 45.8846 14.4926 45.9155 17.6462H51.8267C51.7649 13.2451 54.1947 10.994 59.013 11.001V13.3253C55.5762 13.3253 54.3287 14.4961 54.3596 17.6497H59.0096V19.9705L54.3356 19.9774Z" fill="black"/>
<path d="M63.8517 27.8463C64.0613 31.5853 67.3125 34.5612 71.1411 34.5543C72.5292 34.5581 73.8879 34.1488 75.0487 33.3769C76.2094 32.6051 77.1212 31.5048 77.671 30.2124H80.3035C79.111 33.8155 75.4611 36.9064 71.2236 36.9134C69.9228 36.9297 68.632 36.6824 67.4267 36.1862C66.2214 35.6899 65.126 34.9546 64.2047 34.0234C63.2835 33.0922 62.5549 31.9839 62.0616 30.7634C61.5684 29.5429 61.3206 28.2348 61.3325 26.9159C61.3193 25.6205 61.5606 24.3354 62.0423 23.1356C62.5241 21.9358 63.2367 20.8452 64.1385 19.9276C65.0403 19.01 66.1134 18.2836 67.295 17.7909C68.4766 17.2982 69.7432 17.049 71.0208 17.0578C76.554 17.0578 80.7675 21.0965 80.7778 27.8184L63.8517 27.8463ZM70.9796 19.4135C67.4259 19.4135 64.594 21.8841 63.917 25.5221L78.2346 25.4977C77.372 21.7238 74.6019 19.4065 70.9796 19.4135Z" fill="black"/>
<path d="M153.537 36.4495L153.493 33.1217C151.547 35.8537 149.513 36.9548 146.334 37.0001C140.594 37.0768 136.264 32.9091 136.189 27.264C136.113 21.6189 140.292 17.2247 145.897 17.1585C149.142 17.1132 151.448 18.2597 153.328 20.8662L153.283 17.507L155.812 17.4721L156.067 36.4251L153.537 36.4495ZM145.997 19.5037C145.032 19.5155 144.078 19.7203 143.191 20.1065C142.304 20.4927 141.501 21.0525 140.827 21.754C140.154 22.4555 139.624 23.2848 139.267 24.1945C138.91 25.1041 138.734 26.0762 138.749 27.0549C138.807 31.3863 142.1 34.7002 146.337 34.641C150.369 34.5852 153.469 31.1807 153.41 26.8877C153.415 25.9054 153.226 24.9321 152.853 24.0253C152.481 23.1186 151.933 22.2967 151.242 21.6083C150.55 20.9199 149.73 20.379 148.83 20.0175C147.929 19.656 146.966 19.4813 145.997 19.5037Z" fill="black"/>
<path d="M166.419 36.9963C162.831 37.0834 160.35 34.787 160.264 31.1142L162.759 31.0549C162.814 33.3757 164.278 34.6929 166.364 34.6407C168.172 34.5988 169.474 33.1806 169.43 31.2745C169.385 29.3684 168.447 28.769 165.721 27.7236C163.068 26.7131 162.996 26.6782 162.23 25.9813C161.763 25.5589 161.39 25.0412 161.135 24.4623C160.879 23.8834 160.748 23.2562 160.748 22.6221C160.676 19.5382 162.879 17.2313 165.921 17.1582C168.962 17.085 171.23 19.1131 171.303 22.1586L168.739 22.2214C168.698 20.4198 167.581 19.4755 165.941 19.5173C165.587 19.5236 165.238 19.6009 164.914 19.7446C164.589 19.8884 164.296 20.0958 164.051 20.3549C163.806 20.614 163.614 20.9197 163.486 21.2544C163.358 21.5891 163.297 21.9461 163.305 22.305C163.333 23.4166 163.896 24.2006 165.072 24.7617C165.625 25.023 165.759 25.0892 168.629 26.2008C170.835 27.0824 171.932 28.6401 171.986 30.9713C172.066 34.4351 169.766 36.9161 166.419 36.9963Z" fill="black"/>
</g>
<defs>
<clipPath id="clip0_337_2103">
<rect width="172" height="37" fill="white"/>
</clipPath>
</defs>
</svg>
